<svg xmlns="http://www.w3.org/2000/svg" xmlns:xlink="http://www.w3.org/1999/xlink" contentStyleType="text/css" data-diagram-type="SEQUENCE" height="721.6px" preserveAspectRatio="none" style="width:550px;height:721px;" version="1.1" viewBox="0 0 550 721" width="550px" zoomAndPan="magnify"><?plantuml 1.2026.3?><defs/><g><rect fill="none" height="143.66" rx="2.2" ry="2.2" style="stroke:#CBD5E1;stroke-width:1.65;" width="521.9761" x="11" y="184.415"/><rect fill="none" height="143.66" rx="2.2" ry="2.2" style="stroke:#CBD5E1;stroke-width:1.65;" width="521.9761" x="11" y="343.475"/><rect fill="none" height="160.38" rx="2.2" ry="2.2" style="stroke:#CBD5E1;stroke-width:1.65;" width="521.9761" x="11" y="502.535"/><g class="participant-lifeline" data-entity-uid="part1" data-qualified-name="C" data-source-line="2" id="part1-lifeline"><g><title>.color.white.Client C..color.</title><rect fill="#000000" fill-opacity="0.00000" height="641.74" width="8.8" x="50.2249" y="39.875"/><line style="stroke:#E2E8F0;stroke-width:0.55;stroke-dasharray:5.5,5.5;" x1="53.9" x2="53.9" y1="39.875" y2="681.615"/></g></g><g class="participant-lifeline" data-entity-uid="part2" data-qualified-name="R" data-source-line="3" id="part2-lifeline"><g><title>Router R</title><rect fill="#000000" fill-opacity="0.00000" height="641.74" width="8.8" x="483.1851" y="39.875"/><line style="stroke:#E2E8F0;stroke-width:0.55;stroke-dasharray:5.5,5.5;" x1="487.2942" x2="487.2942" y1="39.875" y2="681.615"/></g></g><g class="participant participant-head" data-entity-uid="part1" data-qualified-name="C" data-source-line="2" id="part1-head"><rect fill="#3B82F6" height="33.275" rx="2.2" ry="2.2" style="stroke:#CBD5E1;stroke-width:0.55;" width="65.2498" x="22" y="5.5"/><text fill="#FFFFFF" font-family="TT Commons Pro" font-size="14.3" lengthAdjust="spacing" textLength="49.8498" x="29.7" y="27.5">Client C</text></g><g class="participant participant-tail" data-entity-uid="part1" data-qualified-name="C" data-source-line="2" id="part1-tail"><rect fill="#3B82F6" height="33.275" rx="2.2" ry="2.2" style="stroke:#CBD5E1;stroke-width:0.55;" width="65.2498" x="22" y="680.515"/><text fill="#FFFFFF" font-family="TT Commons Pro" font-size="14.3" lengthAdjust="spacing" textLength="49.8498" x="29.7" y="702.515">Client C</text></g><g class="participant participant-head" data-entity-uid="part2" data-qualified-name="R" data-source-line="3" id="part2-head"><rect fill="#FFFFFF" height="33.275" rx="2.2" ry="2.2" style="stroke:#CBD5E1;stroke-width:0.55;" width="68.7819" x="453.1942" y="5.5"/><text fill="#1F2937" font-family="TT Commons Pro" font-size="14.3" lengthAdjust="spacing" textLength="53.3819" x="460.8942" y="27.5">Router R</text></g><g class="participant participant-tail" data-entity-uid="part2" data-qualified-name="R" data-source-line="3" id="part2-tail"><rect fill="#FFFFFF" height="33.275" rx="2.2" ry="2.2" style="stroke:#CBD5E1;stroke-width:0.55;" width="68.7819" x="453.1942" y="680.515"/><text fill="#1F2937" font-family="TT Commons Pro" font-size="14.3" lengthAdjust="spacing" textLength="53.3819" x="460.8942" y="702.515">Router R</text></g><g class="message" data-entity-1="part1" data-entity-2="part2" data-source-line="5" id="msg1"><polygon fill="#2563EB" points="474.3851,116.435,485.3851,120.835,474.3851,125.235,478.7851,120.835" style="stroke:#2563EB;stroke-width:1.1;"/><line style="stroke:#2563EB;stroke-width:1.21;" x1="54.6249" x2="480.9851" y1="120.835" y2="120.835"/><text fill="#475569" font-family="Operator Mono" font-size="13.2" lengthAdjust="spacing" textLength="72.6" x="62.3249" y="67.947">job.submit</text><text fill="#475569" font-family="Operator Mono" font-size="13.2" lengthAdjust="spacing" textLength="174.24" x="62.3249" y="83.787">{ agent: "web-research",</text><text fill="#475569" font-family="Operator Mono" font-size="13.2" lengthAdjust="spacing" textLength="377.5202" x="76.8449" y="99.627">lease_request: { tool.call: ["search.*", "fetch.*"],</text><text fill="#475569" font-family="Operator Mono" font-size="13.2" lengthAdjust="spacing" textLength="210.54" x="200.2649" y="115.467">cost.budget: ["USD:1.00"] } }</text></g><g class="message" data-entity-1="part2" data-entity-2="part1" data-source-line="6" id="msg2"><polygon fill="#94A3B8" points="66.7249,163.515,55.7249,167.915,66.7249,172.315,62.3249,167.915" style="stroke:#94A3B8;stroke-width:1.1;"/><line style="stroke:#94A3B8;stroke-width:1.21;stroke-dasharray:2.2,2.2;" x1="60.1249" x2="486.4851" y1="167.915" y2="167.915"/><text fill="#475569" font-family="Operator Mono" font-size="13.2" lengthAdjust="spacing" textLength="87.12" x="73.3249" y="146.707">job.accepted</text><text fill="#475569" font-family="Operator Mono" font-size="13.2" lengthAdjust="spacing" textLength="297.6601" x="73.3249" y="162.547">{ job_id: job_WR, budget: { USD: 1.00 } }</text></g><path d="M13.2,184.415 L184.4084,184.415 L184.4084,192.115 L173.4084,203.115 L11,203.115 L11,186.615 A2.2,2.2 0 0 1 13.2,184.415" fill="#F8FAFC" style="stroke:#CBD5E1;stroke-width:1.65;"/><rect fill="none" height="143.66" rx="2.2" ry="2.2" style="stroke:#CBD5E1;stroke-width:1.65;" width="521.9761" x="11" y="184.415"/><text fill="#1F2937" font-family="TT Commons Pro" font-size="13.2" lengthAdjust="spacing" textLength="123.9084" x="27.5" y="198.715">call 1 &#8212; search ($0.42)</text><g class="message" data-entity-1="part2" data-entity-2="part1" data-source-line="9" id="msg3"><polygon fill="#94A3B8" points="66.7249,221.155,55.7249,225.555,66.7249,229.955,62.3249,225.555" style="stroke:#94A3B8;stroke-width:1.1;"/><line style="stroke:#94A3B8;stroke-width:1.21;stroke-dasharray:2.2,2.2;" x1="60.1249" x2="486.4851" y1="225.555" y2="225.555"/><text fill="#475569" font-family="Operator Mono" font-size="13.2" lengthAdjust="spacing" textLength="297.6601" x="73.3249" y="220.187">job.event [seq=1] tool_call search.web c1</text></g><g class="message" data-entity-1="part2" data-entity-2="part1" data-source-line="10" id="msg4"><polygon fill="#94A3B8" points="66.7249,252.395,55.7249,256.795,66.7249,261.195,62.3249,256.795" style="stroke:#94A3B8;stroke-width:1.1;"/><line style="stroke:#94A3B8;stroke-width:1.21;stroke-dasharray:2.2,2.2;" x1="60.1249" x2="486.4851" y1="256.795" y2="256.795"/><text fill="#475569" font-family="Operator Mono" font-size="13.2" lengthAdjust="spacing" textLength="232.3201" x="73.3249" y="251.427">job.event [seq=2] tool_result c1</text></g><g class="message" data-entity-1="part2" data-entity-2="part1" data-source-line="11" id="msg5"><polygon fill="#94A3B8" points="66.7249,283.635,55.7249,288.035,66.7249,292.435,62.3249,288.035" style="stroke:#94A3B8;stroke-width:1.1;"/><line style="stroke:#94A3B8;stroke-width:1.21;stroke-dasharray:2.2,2.2;" x1="60.1249" x2="486.4851" y1="288.035" y2="288.035"/><text fill="#475569" font-family="Operator Mono" font-size="13.2" lengthAdjust="spacing" textLength="326.7001" x="73.3249" y="282.667">job.event [seq=3] metric cost.search 0.42 USD</text></g><g class="message" data-entity-1="part2" data-entity-2="part1" data-source-line="12" id="msg6"><polygon fill="#94A3B8" points="66.7249,314.875,55.7249,319.275,66.7249,323.675,62.3249,319.275" style="stroke:#94A3B8;stroke-width:1.1;"/><line style="stroke:#94A3B8;stroke-width:1.21;stroke-dasharray:2.2,2.2;" x1="60.1249" x2="486.4851" y1="319.275" y2="319.275"/><text fill="#475569" font-family="Operator Mono" font-size="13.2" lengthAdjust="spacing" textLength="399.3002" x="73.3249" y="313.907">job.event [seq=4] metric cost.budget.remaining 0.58 USD</text></g><path d="M13.2,343.475 L269.0864,343.475 L269.0864,351.175 L258.0864,362.175 L11,362.175 L11,345.675 A2.2,2.2 0 0 1 13.2,343.475" fill="#F8FAFC" style="stroke:#CBD5E1;stroke-width:1.65;"/><rect fill="none" height="143.66" rx="2.2" ry="2.2" style="stroke:#CBD5E1;stroke-width:1.65;" width="521.9761" x="11" y="343.475"/><text fill="#1F2937" font-family="TT Commons Pro" font-size="13.2" lengthAdjust="spacing" textLength="208.5864" x="27.5" y="357.775">call 2 &#8212; fetch ($0.70 &#8594; over budget)</text><g class="message" data-entity-1="part2" data-entity-2="part1" data-source-line="16" id="msg7"><polygon fill="#94A3B8" points="66.7249,380.215,55.7249,384.615,66.7249,389.015,62.3249,384.615" style="stroke:#94A3B8;stroke-width:1.1;"/><line style="stroke:#94A3B8;stroke-width:1.21;stroke-dasharray:2.2,2.2;" x1="60.1249" x2="486.4851" y1="384.615" y2="384.615"/><text fill="#475569" font-family="Operator Mono" font-size="13.2" lengthAdjust="spacing" textLength="290.4001" x="73.3249" y="379.247">job.event [seq=5] tool_call fetch.url c2</text></g><g class="message" data-entity-1="part2" data-entity-2="part1" data-source-line="17" id="msg8"><polygon fill="#94A3B8" points="66.7249,411.455,55.7249,415.855,66.7249,420.255,62.3249,415.855" style="stroke:#94A3B8;stroke-width:1.1;"/><line style="stroke:#94A3B8;stroke-width:1.21;stroke-dasharray:2.2,2.2;" x1="60.1249" x2="486.4851" y1="415.855" y2="415.855"/><text fill="#475569" font-family="Operator Mono" font-size="13.2" lengthAdjust="spacing" textLength="232.3201" x="73.3249" y="410.487">job.event [seq=6] tool_result c2</text></g><g class="message" data-entity-1="part2" data-entity-2="part1" data-source-line="18" id="msg9"><polygon fill="#94A3B8" points="66.7249,442.695,55.7249,447.095,66.7249,451.495,62.3249,447.095" style="stroke:#94A3B8;stroke-width:1.1;"/><line style="stroke:#94A3B8;stroke-width:1.21;stroke-dasharray:2.2,2.2;" x1="60.1249" x2="486.4851" y1="447.095" y2="447.095"/><text fill="#475569" font-family="Operator Mono" font-size="13.2" lengthAdjust="spacing" textLength="319.4401" x="73.3249" y="441.727">job.event [seq=7] metric cost.fetch 0.70 USD</text></g><g class="message" data-entity-1="part2" data-entity-2="part1" data-source-line="19" id="msg10"><polygon fill="#94A3B8" points="66.7249,473.935,55.7249,478.335,66.7249,482.735,62.3249,478.335" style="stroke:#94A3B8;stroke-width:1.1;"/><line style="stroke:#94A3B8;stroke-width:1.21;stroke-dasharray:2.2,2.2;" x1="60.1249" x2="486.4851" y1="478.335" y2="478.335"/><text fill="#475569" font-family="Operator Mono" font-size="13.2" lengthAdjust="spacing" textLength="406.5602" x="73.3249" y="472.967">job.event [seq=8] metric cost.budget.remaining -0.12 USD</text></g><path d="M13.2,502.535 L153.5732,502.535 L153.5732,510.235 L142.5732,521.235 L11,521.235 L11,504.735 A2.2,2.2 0 0 1 13.2,502.535" fill="#F8FAFC" style="stroke:#CBD5E1;stroke-width:1.65;"/><rect fill="none" height="160.38" rx="2.2" ry="2.2" style="stroke:#CBD5E1;stroke-width:1.65;" width="521.9761" x="11" y="502.535"/><text fill="#1F2937" font-family="TT Commons Pro" font-size="13.2" lengthAdjust="spacing" textLength="93.0732" x="27.5" y="516.835">call 3 &#8212; rejected</text><g class="message" data-entity-1="part2" data-entity-2="part1" data-source-line="23" id="msg11"><polygon fill="#94A3B8" points="66.7249,539.275,55.7249,543.675,66.7249,548.075,62.3249,543.675" style="stroke:#94A3B8;stroke-width:1.1;"/><line style="stroke:#94A3B8;stroke-width:1.21;stroke-dasharray:2.2,2.2;" x1="60.1249" x2="486.4851" y1="543.675" y2="543.675"/><text fill="#475569" font-family="Operator Mono" font-size="13.2" lengthAdjust="spacing" textLength="290.4001" x="73.3249" y="538.307">job.event [seq=9] tool_call fetch.url c3</text></g><g class="message" data-entity-1="part2" data-entity-2="part1" data-source-line="24" id="msg12"><polygon fill="#DC2626" points="66.7249,649.715,55.7249,654.115,66.7249,658.515,62.3249,654.115" style="stroke:#DC2626;stroke-width:1.1;"/><line style="stroke:#DC2626;stroke-width:1.21;stroke-dasharray:2.2,2.2;" x1="60.1249" x2="486.4851" y1="654.115" y2="654.115"/><text fill="#DC2626" font-family="Operator Mono" font-size="13.2" lengthAdjust="spacing" textLength="130.68" x="73.3249" y="569.547">job.event [seq=10]</text><text fill="#475569" font-family="Operator Mono" font-size="13.2" lengthAdjust="spacing" textLength="159.72" x="73.3249" y="585.387">{ kind: "tool_result",</text><text fill="#475569" font-family="Operator Mono" font-size="13.2" lengthAdjust="spacing" textLength="145.2" x="87.8449" y="601.227">body: { call_id: c3,</text><text fill="#475569" font-family="Operator Mono" font-size="13.2" lengthAdjust="spacing" textLength="246.8401" x="145.9249" y="617.067">error: { code: "BUDGET_EXHAUSTED",</text><text fill="#475569" font-family="Operator Mono" font-size="13.2" lengthAdjust="spacing" textLength="232.3201" x="211.2649" y="632.907">message: "USD budget exhausted",</text><text fill="#475569" font-family="Operator Mono" font-size="13.2" lengthAdjust="spacing" textLength="159.72" x="211.2649" y="648.747">retryable: false } } }</text></g><?plantuml-src bPJ1Rjf048RlVegfbKDRWMiWQLAK8hM0shCJr4h4ijRh2MowzZgxwn248lNK1wZwX7cIxgwD5AT11KvcFFFFpEUPUSKAogiC8T5BpB7BsMAfWxBAkLSIgHbb9Iaq-ETKS267goNJE1fpXiOuFd_dh2CVY88n755dJvon7Hw9IgE4o7b6dZU6xdphJgGKgtW44C4GRaGQg2hDcRugDa0Mnc48_WhJhaI5HDAbtxag03WIXOd4smgLyTY05e87b70-XBbVUmPl_GxurwZTO-pY_lbHeNIGLja2jOsSNKo6lI0C_HWUuC6BR9qIIxvkokoEJADrcOHIB3Lcjb3pFs6PioVVeWvi1JTW1S4gEZrl8KLLWgqJUl3uym_KfSBhep0uxh_nB8NTAV7ESfyhlFtOYrtBYPDg-ZMOWFRsr-Wt6WPjnVL1eOCOSjIIqHfWquNjmNQylyvnMwVc5aZC2IjOiJ2A9sTE4OkiHQ_lwBcFw-2TXl3uwpU8EpDcjSe1C4-Umgm7ff8SQ7z_YVVFM1uGUjfcKFVaEZe8vTb_K7R3eDT_aUN0iPHuWzJCy_uPF-p0DjXAe0cMROdca3IlDDxhqVF93kFjOR6hzOCLPh7y9t3h2v2AR6qNp2PtkqS7hGrt2Po3oD08V9vDlamla-dthvzc5vVJYV_oFSXHANDsJ80XrKmIuFsILCgmsH4a3VSrIRa9koPSeTrri-s6yry0?></g></svg>