<svg xmlns="http://www.w3.org/2000/svg" xmlns:xlink="http://www.w3.org/1999/xlink" contentStyleType="text/css" data-diagram-type="SEQUENCE" height="478.5px" preserveAspectRatio="none" style="width:480px;height:478px;" version="1.1" viewBox="0 0 480 478" width="480.7px" zoomAndPan="magnify"><?plantuml 1.2026.3?><defs/><g><g class="participant-lifeline" data-entity-uid="part1" data-qualified-name="C" data-source-line="2" id="part1-lifeline"><g><title>.color.white.Client C..color.</title><rect fill="#000000" fill-opacity="0.00000" height="398.42" width="8.8" x="33.7249" y="39.875"/><line style="stroke:#E2E8F0;stroke-width:0.55;stroke-dasharray:5.5,5.5;" x1="37.4" x2="37.4" y1="39.875" y2="438.295"/></g></g><g class="participant-lifeline" data-entity-uid="part2" data-qualified-name="R" data-source-line="3" id="part2-lifeline"><g><title>Router R</title><rect fill="#000000" fill-opacity="0.00000" height="398.42" width="8.8" x="430.3851" y="39.875"/><line style="stroke:#E2E8F0;stroke-width:0.55;stroke-dasharray:5.5,5.5;" x1="434.4941" x2="434.4941" y1="39.875" y2="438.295"/></g></g><g class="participant participant-head" data-entity-uid="part1" data-qualified-name="C" data-source-line="2" id="part1-head"><rect fill="#3B82F6" height="33.275" rx="2.2" ry="2.2" style="stroke:#CBD5E1;stroke-width:0.55;" width="65.2498" x="5.5" y="5.5"/><text fill="#FFFFFF" font-family="TT Commons Pro Trial" font-size="14.3" lengthAdjust="spacing" textLength="49.8498" x="13.2" y="27.5">Client C</text></g><g class="participant participant-tail" data-entity-uid="part1" data-qualified-name="C" data-source-line="2" id="part1-tail"><rect fill="#3B82F6" height="33.275" rx="2.2" ry="2.2" style="stroke:#CBD5E1;stroke-width:0.55;" width="65.2498" x="5.5" y="437.195"/><text fill="#FFFFFF" font-family="TT Commons Pro Trial" font-size="14.3" lengthAdjust="spacing" textLength="49.8498" x="13.2" y="459.195">Client C</text></g><g class="participant participant-head" data-entity-uid="part2" data-qualified-name="R" data-source-line="3" id="part2-head"><rect fill="#FFFFFF" height="33.275" rx="2.2" ry="2.2" style="stroke:#CBD5E1;stroke-width:0.55;" width="68.7819" x="400.3941" y="5.5"/><text fill="#1F2937" font-family="TT Commons Pro Trial" font-size="14.3" lengthAdjust="spacing" textLength="53.3819" x="408.0941" y="27.5">Router R</text></g><g class="participant participant-tail" data-entity-uid="part2" data-qualified-name="R" data-source-line="3" id="part2-tail"><rect fill="#FFFFFF" height="33.275" rx="2.2" ry="2.2" style="stroke:#CBD5E1;stroke-width:0.55;" width="68.7819" x="400.3941" y="437.195"/><text fill="#1F2937" font-family="TT Commons Pro Trial" font-size="14.3" lengthAdjust="spacing" textLength="53.3819" x="408.0941" y="459.195">Router R</text></g><rect fill="#F1F5F9" height="3.3" rx="2.2" ry="2.2" style="stroke:#F1F5F9;stroke-width:1.1;" width="474.676" x="0" y="73.425"/><line style="stroke:#E2E8F0;stroke-width:1.1;" x1="0" x2="474.676" y1="73.425" y2="73.425"/><line style="stroke:#E2E8F0;stroke-width:1.1;" x1="0" x2="474.676" y1="76.725" y2="76.725"/><rect fill="#F1F5F9" height="25.3" rx="2.2" ry="2.2" style="stroke:#E2E8F0;stroke-width:2.2;" width="153.3268" x="160.6746" y="61.875"/><text fill="#475569" font-family="TT Commons Pro Trial" font-size="13.2" lengthAdjust="spacing" textLength="134.7852" x="167.2746" y="79.475">quiet period: 30s elapse</text><g class="message" data-entity-1="part1" data-entity-2="part2" data-source-line="7" id="msg1"><polygon fill="#2563EB" points="421.5851,132.055,432.5851,136.455,421.5851,140.855,425.9851,136.455" style="stroke:#2563EB;stroke-width:1.1;"/><line style="stroke:#2563EB;stroke-width:1.21;" x1="38.1249" x2="428.1851" y1="136.455" y2="136.455"/><text fill="#475569" font-family="Operator Mono" font-size="13.2" lengthAdjust="spacing" textLength="87.12" x="45.8249" y="115.247">session.ping</text><text fill="#475569" font-family="Operator Mono" font-size="13.2" lengthAdjust="spacing" textLength="275.8801" x="45.8249" y="131.087">{ nonce: "p1", sent_at: "...:43:00Z" }</text></g><g class="message" data-entity-1="part2" data-entity-2="part1" data-source-line="8" id="msg2"><polygon fill="#94A3B8" points="50.2249,179.135,39.2249,183.535,50.2249,187.935,45.8249,183.535" style="stroke:#94A3B8;stroke-width:1.1;"/><line style="stroke:#94A3B8;stroke-width:1.21;stroke-dasharray:2.2,2.2;" x1="43.6249" x2="433.6851" y1="183.535" y2="183.535"/><text fill="#475569" font-family="Operator Mono" font-size="13.2" lengthAdjust="spacing" textLength="87.12" x="56.8249" y="162.327">session.pong</text><text fill="#475569" font-family="Operator Mono" font-size="13.2" lengthAdjust="spacing" textLength="370.2602" x="56.8249" y="178.167">{ ping_nonce: "p1", received_at: "...:43:00.020Z" }</text></g><rect fill="#F1F5F9" height="3.3" rx="2.2" ry="2.2" style="stroke:#F1F5F9;stroke-width:1.1;" width="474.676" x="0" y="214.885"/><line style="stroke:#E2E8F0;stroke-width:1.1;" x1="0" x2="474.676" y1="214.885" y2="214.885"/><line style="stroke:#E2E8F0;stroke-width:1.1;" x1="0" x2="474.676" y1="218.185" y2="218.185"/><rect fill="#F1F5F9" height="25.3" rx="2.2" ry="2.2" style="stroke:#E2E8F0;stroke-width:2.2;" width="126.4516" x="174.1122" y="203.335"/><text fill="#475569" font-family="TT Commons Pro Trial" font-size="13.2" lengthAdjust="spacing" textLength="107.91" x="180.7122" y="220.935">another 30s elapse</text><g class="message" data-entity-1="part2" data-entity-2="part1" data-source-line="12" id="msg3"><polygon fill="#94A3B8" points="50.2249,273.515,39.2249,277.915,50.2249,282.315,45.8249,277.915" style="stroke:#94A3B8;stroke-width:1.1;"/><line style="stroke:#94A3B8;stroke-width:1.21;" x1="43.6249" x2="433.6851" y1="277.915" y2="277.915"/><text fill="#475569" font-family="Operator Mono" font-size="13.2" lengthAdjust="spacing" textLength="87.12" x="56.8249" y="256.707">session.ping</text><text fill="#475569" font-family="Operator Mono" font-size="13.2" lengthAdjust="spacing" textLength="275.8801" x="56.8249" y="272.547">{ nonce: "p2", sent_at: "...:43:30Z" }</text></g><g class="message" data-entity-1="part1" data-entity-2="part2" data-source-line="13" id="msg4"><polygon fill="#2563EB" points="421.5851,320.595,432.5851,324.995,421.5851,329.395,425.9851,324.995" style="stroke:#2563EB;stroke-width:1.1;"/><line style="stroke:#2563EB;stroke-width:1.21;stroke-dasharray:2.2,2.2;" x1="38.1249" x2="428.1851" y1="324.995" y2="324.995"/><text fill="#475569" font-family="Operator Mono" font-size="13.2" lengthAdjust="spacing" textLength="87.12" x="45.8249" y="303.787">session.pong</text><text fill="#475569" font-family="Operator Mono" font-size="13.2" lengthAdjust="spacing" textLength="370.2602" x="45.8249" y="319.627">{ ping_nonce: "p2", received_at: "...:43:30.015Z" }</text></g><path d="M6.6,341.495 L6.6,419.595 A2.2,2.2 0 0 0 8.8,421.795 L462,421.795 A2.2,2.2 0 0 0 464.2,419.595 L464.2,350.295 L453.2,339.295 L8.8,339.295 A2.2,2.2 0 0 0 6.6,341.495" fill="#FEFFDD" style="stroke:#181818;stroke-width:0.55;"/><path d="M453.2,339.295 L453.2,349.195 A1.1,1.1 0 0 0 454.3,350.295 L464.2,350.295 L453.2,339.295" fill="#FEFFDD" style="stroke:#181818;stroke-width:0.55;"/><text fill="#000000" font-family="TT Commons Pro Trial" font-size="14.3" lengthAdjust="spacing" textLength="271.6142" x="72.9304" y="359.095">Missing pong within 30s closes the transport</text><text fill="#000000" font-family="TT Commons Pro Trial" font-size="14.3" lengthAdjust="spacing" textLength="315.6153" x="72.9304" y="376.97">and surfaces HEARTBEAT_LOST. Jobs keep running</text><text fill="#000000" font-family="TT Commons Pro Trial" font-size="14.3" lengthAdjust="spacing" textLength="263.2487" x="72.9304" y="394.845">server-side and may be resumed within the</text><text fill="#000000" font-family="TT Commons Pro Trial" font-size="14.3" lengthAdjust="spacing" textLength="97.8263" x="72.9304" y="412.72">resume window.</text><?plantuml-src XP9DJuD048Rl_8gHU2n8Yrv8Ir994sCq9jYJ7o5R6Cj6s5rtbvB6-DyTm2QszUF8kpFFpBFB2HTvrHG8cIsnHg_YwzBwggahHp5jUSuL4nRSQIuhgQEsv1RZfE98OJ8zwzFO1MOWWTEypxC-t6zFPMDHGzfNfeupcy5Rmz62Girb4K4O6C2AAOCmcpbE0jxZ3iUqbkrp391210QDuLBuYelratW78KME4RXgx8xei2ktzEdxVdGUHa7muCA7atOqZQhQVi6ycDRz1fC3h8DcUqIDEV8D5WTKFvWCv4w42KbtfmyLZeQIGVANmUGdWt2OStmVf93-gp3vJI4aXV75e43h8yWD6IGZUXk0MqvCiOQE2Ist9HUzN5v96WSa2rOpOPJKbigPAC0q-eNbT7YrcAVBoyLycTtStIzzk9Oh0w-82dGZ156fmQ2cQPxXzDjrpJNRmWffKTFKMEmcqXYg7KBAH25Rtq4gx_Rz1000?></g></svg>