<?xml version="1.0" encoding="UTF-8" standalone="no"?>
<!DOCTYPE svg PUBLIC "-//W3C//DTD SVG 1.1//EN"
 "http://www.w3.org/Graphics/SVG/1.1/DTD/svg11.dtd">
<!-- Generated by graphviz version 14.1.5 (20260411.2331)
 -->
<!-- Title: SystemArchitecture Pages: 1 -->
<svg width="226pt" height="366pt"
 viewBox="0.00 0.00 226.00 366.00" xmlns="http://www.w3.org/2000/svg" xmlns:xlink="http://www.w3.org/1999/xlink">
<g id="graph0" class="graph" transform="scale(1 1) rotate(0) translate(25.2 348.18)">
<title>SystemArchitecture</title>
<g id="clust1" class="cluster">
<title>cluster_host</title>
<path fill="#0f172a" stroke="#334155" d="M20,-8C20,-8 156,-8 156,-8 162,-8 168,-14 168,-20 168,-20 168,-243.59 168,-243.59 168,-249.59 162,-255.59 156,-255.59 156,-255.59 20,-255.59 20,-255.59 14,-255.59 8,-249.59 8,-243.59 8,-243.59 8,-20 8,-20 8,-14 14,-8 20,-8"/>
<text xml:space="preserve" text-anchor="start" x="24" y="-233.19" font-family="Helvetica,sans-Serif" font-weight="bold" font-size="12.00" fill="#94a3b8">Runtime Host</text>
</g>
<!-- Client -->
<g id="node1" class="node">
<title>Client</title>
<path fill="#3b82f6" stroke="#2563eb" stroke-width="1.4" d="M133.09,-330.18C133.09,-330.18 42.91,-330.18 42.91,-330.18 36.91,-330.18 30.91,-324.18 30.91,-318.18 30.91,-318.18 30.91,-305.34 30.91,-305.34 30.91,-299.34 36.91,-293.34 42.91,-293.34 42.91,-293.34 133.09,-293.34 133.09,-293.34 139.09,-293.34 145.09,-299.34 145.09,-305.34 145.09,-305.34 145.09,-318.18 145.09,-318.18 145.09,-324.18 139.09,-330.18 133.09,-330.18"/>
<text xml:space="preserve" text-anchor="start" x="52.38" y="-311.86" font-family="Helvetica,sans-Serif" font-weight="bold" font-size="12.00" fill="white">ARCP Client</text>
<text xml:space="preserve" text-anchor="start" x="46.75" y="-302.71" font-family="Helvetica,sans-Serif" font-size="9.00" fill="#cbd5e1">CLI, IDE, dashboard</text>
</g>
<!-- Arcp -->
<g id="node2" class="node">
<title>Arcp</title>
<path fill="#f59e0b" stroke="#d97706" stroke-width="1.4" d="M142.47,-212.84C142.47,-212.84 33.53,-212.84 33.53,-212.84 27.53,-212.84 21.53,-206.84 21.53,-200.84 21.53,-200.84 21.53,-188 21.53,-188 21.53,-182 27.53,-176 33.53,-176 33.53,-176 142.47,-176 142.47,-176 148.47,-176 154.47,-182 154.47,-188 154.47,-188 154.47,-200.84 154.47,-200.84 154.47,-206.84 148.47,-212.84 142.47,-212.84"/>
<text xml:space="preserve" text-anchor="start" x="70.38" y="-194.52" font-family="Helvetica,sans-Serif" font-weight="bold" font-size="12.00" fill="white">ARCP</text>
<text xml:space="preserve" text-anchor="start" x="37.38" y="-185.37" font-family="Helvetica,sans-Serif" font-size="9.00" fill="white">jobs · leases · delegation</text>
</g>
<!-- Client&#45;&gt;Arcp -->
<g id="edge1" class="edge">
<title>Client&#45;&gt;Arcp</title>
<path fill="none" stroke="#94a3b8" stroke-width="1.2" d="M88,-292.65C88,-292.65 88,-279.45 88,-264.51"/>
<polygon fill="#94a3b8" stroke="#94a3b8" stroke-width="1.2" points="88,-257.05 91.38,-264.55 88.1,-259.34 88.1,-264.55 88,-264.55 87.9,-264.55 87.9,-259.34 84.63,-264.55 88,-257.05"/>
<text xml:space="preserve" text-anchor="middle" x="100.75" y="-264.79" font-family="Helvetica,sans-Serif" font-size="9.00" fill="#94a3b8">ARCP</text>
</g>
<!-- Agents -->
<g id="node3" class="node">
<title>Agents</title>
<path fill="#334155" stroke="#475569" d="M132.72,-135C132.72,-135 43.29,-135 43.29,-135 37.28,-135 31.28,-129 31.28,-123 31.28,-123 31.28,-111 31.28,-111 31.28,-105 37.28,-99 43.28,-99 43.28,-99 132.72,-99 132.72,-99 138.72,-99 144.72,-105 144.72,-111 144.72,-111 144.72,-123 144.72,-123 144.72,-129 138.72,-135 132.72,-135"/>
<text xml:space="preserve" text-anchor="start" x="47.12" y="-117.55" font-family="Helvetica,sans-Serif" font-size="11.00" fill="#f1f5f9">Agent Processes</text>
<text xml:space="preserve" text-anchor="start" x="57.62" y="-108.45" font-family="Helvetica,sans-Serif" font-size="9.00" fill="#94a3b8">as MCP clients</text>
</g>
<!-- Arcp&#45;&gt;Agents -->
<g id="edge2" class="edge">
<title>Arcp&#45;&gt;Agents</title>
<path fill="none" stroke="#475569" d="M88,-175.68C88,-175.68 88,-144.02 88,-144.02"/>
<polygon fill="#475569" stroke="#475569" points="88,-136.52 91.38,-144.02 88,-139.05 88,-144.02 88,-144.02 88,-144.02 88,-139.05 84.63,-144.02 88,-136.52"/>
</g>
<!-- Mcp -->
<g id="node4" class="node">
<title>Mcp</title>
<path fill="#334155" stroke="#475569" d="M141.72,-58C141.72,-58 34.29,-58 34.29,-58 28.29,-58 22.28,-52 22.28,-46 22.28,-46 22.28,-34 22.28,-34 22.28,-28 28.28,-22 34.28,-22 34.28,-22 141.72,-22 141.72,-22 147.72,-22 153.72,-28 153.72,-34 153.72,-34 153.72,-46 153.72,-46 153.72,-52 147.72,-58 141.72,-58"/>
<text xml:space="preserve" text-anchor="start" x="56.5" y="-40.55" font-family="Helvetica,sans-Serif" font-size="11.00" fill="#f1f5f9">MCP servers</text>
<text xml:space="preserve" text-anchor="start" x="38.12" y="-31.45" font-family="Helvetica,sans-Serif" font-size="9.00" fill="#94a3b8">tools · HITL · integrations</text>
</g>
<!-- Agents&#45;&gt;Mcp -->
<g id="edge3" class="edge">
<title>Agents&#45;&gt;Mcp</title>
<path fill="none" stroke="#475569" d="M88,-98.75C88,-98.75 88,-67.1 88,-67.1"/>
<polygon fill="#475569" stroke="#475569" points="88,-59.6 91.38,-67.1 88,-62.13 88,-67.1 88,-67.1 88,-67.1 88,-62.13 84.63,-67.1 88,-59.6"/>
</g>
</g>
</svg>
